HIERARCHY
ROOT hip
{
  OFFSET 0.0 0.0 0.0
  CHANNELS 6 Xposition Yposition Zposition Zrotation Yrotation Xrotation
  JOINT torso
  {
    OFFSET 0.0 0.0 0.0
    CHANNELS 3 Zrotation Xrotation Yrotation
    JOINT neck
    {
      OFFSET -8.059630999999968 325.56260699999996 64.6221310000002
      CHANNELS 3 Zrotation Xrotation Yrotation
      JOINT head
      {
        OFFSET 34.685424000000125 375.1179809999999 232.79357900000002
        CHANNELS 3 Zrotation Xrotation Yrotation
        End Site
        {
          OFFSET 0.0 0.0 0.0
        }
      }
    }
    JOINT left_collar
    {
      OFFSET -8.059630999999968 325.56260699999996 64.6221310000002
      CHANNELS 3 Zrotation Xrotation Yrotation
      JOINT left_upper_arm
      {
        OFFSET -124.124665 -15.370300999999927 25.582641999999964
        CHANNELS 3 Zrotation Xrotation Yrotation
        JOINT left_forearm
        {
          OFFSET -268.19913399999996 105.06054699999993 114.74548300000004
          CHANNELS 3 Zrotation Xrotation Yrotation
          JOINT left_hand
          {
            OFFSET -235.82003099999991 -10.198180999999977 -38.67455999999993
            CHANNELS 3 Zrotation Xrotation Yrotation
            End Site
            {
              OFFSET 0.0 0.0 0.0
            }
          }
        }
      }
    }
    JOINT right_collar
    {
      OFFSET -8.059630999999968 325.56260699999996 64.6221310000002
      CHANNELS 3 Zrotation Xrotation Yrotation
      JOINT right_upper_arm
      {
        OFFSET 162.73931899999997 -2.8598030000000563 26.244994999999903
        CHANNELS 3 Zrotation Xrotation Yrotation
        JOINT right_forearm
        {
          OFFSET 284.6506340000001 103.07031299999994 145.84521499999994
          CHANNELS 3 Zrotation Xrotation Yrotation
          JOINT right_hand
          {
            OFFSET 226.332337 -12.198241999999937 -49.27258299999994
            CHANNELS 3 Zrotation Xrotation Yrotation
            End Site
            {
              OFFSET 0.0 0.0 0.0
            }
          }
        }
      }
    }
  }
}
MOTION
Frames: 6
Frame Time: 0.01
351.62574700370396 139.38603124324777 175.01470257888187 14.214932662796825 -20.938038311471782 -4.929285678853375 0.32914130511376016 1.057631819198263 -0.03618009841575179 0.4897355391140223 0.13953339572756723 -0.3163445825411701 0.0 0.0 0.0 4.888429462892307 -0.8314718716538866 11.086568777490735 53.48602176718455 22.659952374403577 -14.019108841726064 16.954704363032608 2.9536552635933995 -29.810647797963057 0.0 0.0 0.0 -0.2638152974518885 -0.0034679861274107444 -2.315380230014584 -1.1772159278597252 -15.700654514853058 37.56012492574215 80.40561494559911 6.175425642369058 18.0566238901195 0.0 0.0 0.0
349.6546180366797 137.55139878176388 178.1899207155835 14.170769161575606 -21.748384941282414 -4.690966592485923 0.340775885169702 1.1590417596941653 -0.03557496483612785 0.5558915706872467 0.7034786544663056 -0.40798732112043223 0.0 0.0 0.0 4.992479633601724 -0.9125307443971806 11.645156871180305 53.41743744544909 22.879481264709916 -15.519430991926352 16.32376809820344 2.956652129552923 -30.167004998100612 0.0 0.0 0.0 -0.32509680727043994 0.0030845434844882316 -2.416783380214135 -1.0265998293778709 -16.778563573373404 39.17453852346801 77.25313216819829 5.56951100486617 18.520134982085775 0.0 0.0 0.0
347.6857146135708 135.7147466480823 181.39223767657856 14.120805269284146 -22.5622436685953 -4.474596146506535 0.35800858805586844 1.265935641798422 -0.03584805113255992 0.6190396256877583 1.2713672042200657 -0.49804329690688964 0.0 0.0 0.0 5.101145899463319 -0.9970935234336371 12.221812000740174 53.32655350307018 23.089203097962805 -17.024528096180006 15.696222925027023 2.956274457263531 -30.52434901000006 0.0 0.0 0.0 -0.387633079387917 0.009933484923093025 -2.5070820441090196 -0.9246139151830375 -17.86364108045347 40.83479930916199 73.99042427288738 5.0712454708655885 18.88431692921957 0.0 0.0 0.0
345.7174467745953 133.88379349309028 184.60192928194002 14.064789161162246 -23.37635360377615 -4.2763392182197855 0.3807852632047685 1.37754391847092 -0.03699315798939214 0.6796924621705345 1.8404275587132286 -0.5866071657987725 0.0 0.0 0.0 5.213023944570536 -1.0844378612022734 12.810711037788218 53.21686644425083 23.2885568580188 -18.52540879974927 15.075728151241918 2.9525566043914804 -30.880474279830604 0.0 0.0 0.0 -0.4498641072949693 0.01680824320980101 -2.58955718337617 -0.8845307264280303 -18.943117480751006 42.54610584948486 70.63056146705263 4.661466493027219 19.160600441814026 0.0 0.0 0.0
343.7480088298196 132.0658191930102 187.79942657761464 14.002343130001433 -24.187537788318405 -4.091902972142744 0.40889397378780934 1.4930138906471162 -0.03897651228801069 0.7385730022947851 2.407987220316827 -0.6739014325632883 0.0 0.0 0.0 5.326670313184457 -1.17376096185991 13.405805740244954 53.092327712038916 23.477403718874594 -20.013146995258218 14.465974036897611 2.9456364196329226 -31.233221243270844 0.0 0.0 0.0 -0.5099499522928286 0.02339157270531678 -2.6677479091931615 -0.9201324964561973 -20.00281515585461 44.31473966421747 67.18494856155115 4.322760824307355 19.360213268151334 0.0 0.0 0.0
341.77548367926914 130.2675825402658 190.96556910169545 13.93294209792136 -24.992723486147494 -3.916616355416903 0.4419666269738557 1.6114157852622708 -0.041738183400668455 0.7966183734322763 2.9714987951295875 -0.7602774501836778 0.0 0.0 0.0 5.440641581725948 -1.2641865870402424 14.000911188970754 52.95721524788739 23.656026901095228 -21.479026095783535 13.870651538402457 2.935751201694647 -31.5804935709789 0.0 0.0 0.0 -0.5657944854934837 0.029324271499587003 -2.7453768101225395 -1.045519778218881 -21.026992107327935 46.14774780950773 63.66449686404816 4.040205818716466 19.49318218548208 0.0 0.0 0.0
